<svg xmlns="http://www.w3.org/2000/svg" xmlns:xlink="http://www.w3.org/1999/xlink" width="170" height="90" viewBox="0 0 170 90"><defs><clipPath id="a"><rect width="170" height="90" transform="translate(40 15)" fill="#fff" stroke="#707070" stroke-width="1"/></clipPath></defs><g transform="translate(-40 -15)" clip-path="url(#a)"><g transform="translate(30.675 -34.262)"><path d="M54.913,115.747H49.256V101.4a12.276,12.276,0,0,1,10.9-12.22" fill="none" stroke="#212529" stroke-linecap="round" stroke-linejoin="round" stroke-width="1.886"/><path d="M49.727,122.875a5.035,5.035,0,0,1-.415-1.886v-5.242h5.657" fill="none" stroke="#212529" stroke-linecap="round" stroke-linejoin="round" stroke-width="1.886"/><path d="M122.083,101.227A12.3,12.3,0,0,0,132.4,89.082V74.732H122.139" fill="none" stroke="#212529" stroke-linecap="round" stroke-linejoin="round" stroke-width="1.886"/><path d="M127.269,64.473h-5.129a5.129,5.129,0,0,0,0,10.258H132.4V69.584a5.11,5.11,0,0,0-5.129-5.11Z" fill="none" stroke="#212529" stroke-linecap="round" stroke-linejoin="round" stroke-width="1.886"/><path d="M56.855,113.9a42.6,42.6,0,0,1,1.377-20.215,28.984,28.984,0,0,1,1.98-4.507c2.678-4.79,5.525-5.808,6.789-11.013l1.584-7.732c1.98-12.37,12.106-13.2,20.743-13.2s18.725.773,20.743,13.2l1.565,7.732c1.584,6.525,5.657,6.468,8.806,15.52" fill="none" stroke="#212529" stroke-linecap="round" stroke-linejoin="round" stroke-width="1.886"/><path d="M111.259,126.005l-2.093-5.318a2.81,2.81,0,0,0-2.037-1.7,2.772,2.772,0,0,0-2.546.773,26.721,26.721,0,0,1-14.69,6.977,2.81,2.81,0,0,0-2.357,3.771l2.169,5.412a2.791,2.791,0,0,0,3.017,1.754,41.26,41.26,0,0,0,16.519-6.864" fill="none" stroke="#212529" stroke-linecap="round" stroke-linejoin="round" stroke-width="1.886"/><path d="M68.584,70.432c1.641-10.2,8.825-12.521,16.123-13.012C82.313,54.743,76.09,48.6,71,50.67s-3.885,15.2-2.847,21.875Z" fill="none" stroke="#212529" stroke-linecap="round" stroke-linejoin="round" stroke-width="1.886"/><path d="M110.052,70.432c-1.641-10.2-8.825-12.521-16.142-13.012,2.395-2.678,8.618-8.825,13.728-6.751s3.866,15.2,2.829,21.875Z" fill="none" stroke="#212529" stroke-linecap="round" stroke-linejoin="round" stroke-width="1.886"/><path d="M89.309,74.11l-2.451-2.451h4.922Z" fill="none" stroke="#212529" stroke-linecap="round" stroke-linejoin="round" stroke-width="1.886"/><line x2="6.148" y2="1.226" transform="translate(74.543 71.658)" stroke-width="1.886" stroke="#212529" stroke-linecap="round" stroke-linejoin="round" fill="none"/><line y1="1.226" x2="6.148" transform="translate(74.543 77.806)" stroke-width="1.886" stroke="#212529" stroke-linecap="round" stroke-linejoin="round" fill="none"/><path d="M84.387,67.887a6.958,6.958,0,0,0-6.148-3.771" fill="none" stroke="#212529" stroke-linecap="round" stroke-linejoin="round" stroke-width="1.886"/><line x1="6.148" y2="1.226" transform="translate(97.926 71.658)" stroke-width="1.886" stroke="#212529" stroke-linecap="round" stroke-linejoin="round" fill="none"/><line x1="6.148" y1="1.226" transform="translate(97.926 77.806)" stroke-width="1.886" stroke="#212529" stroke-linecap="round" stroke-linejoin="round" fill="none"/><path d="M94.287,67.887a7.015,7.015,0,0,1,6.166-3.771" fill="none" stroke="#212529" stroke-linecap="round" stroke-linejoin="round" stroke-width="1.886"/><path d="M65.36,82.124c-1.056,1.7-2.376,2.979-3.771,4.865,3.6,1.49,12.163,4.149,27.7,4.149s24.119-2.659,27.7-4.149c-1.358-1.886-2.678-3.168-3.771-4.865a85.254,85.254,0,0,1-23.949,2.847A85.462,85.462,0,0,1,65.36,82.124Z" fill="none" stroke="#212529" stroke-linecap="round" stroke-linejoin="round" stroke-width="1.886"/><path d="M89.309,91.138a7.166,7.166,0,1,1-5.074,2.105,7.185,7.185,0,0,1,5.074-2.105Z" fill="none" stroke="#212529" stroke-linecap="round" stroke-linejoin="round" stroke-width="1.886"/><line x2="18.461" transform="translate(80.087 98.322)" stroke-width="1.886" stroke="#212529" stroke-linecap="round" stroke-linejoin="round" fill="none"/><path d="M68.283,117.8H61.117a2.565,2.565,0,0,0,0,5.129h7.166a2.565,2.565,0,1,0,0-5.129Z" fill="none" stroke="#212529" stroke-linecap="round" stroke-linejoin="round" stroke-width="1.886"/><path d="M64.115,122.931H57.006a2.565,2.565,0,0,0,0,5.129h7.109a2.565,2.565,0,0,0,0-5.129Z" fill="none" stroke="#212529" stroke-linecap="round" stroke-linejoin="round" stroke-width="1.886"/><path d="M68.283,128.061H61.117a2.565,2.565,0,0,0,0,5.129h7.166a2.565,2.565,0,0,0,0-5.129Z" fill="none" stroke="#212529" stroke-linecap="round" stroke-linejoin="round" stroke-width="1.886"/><path d="M68.283,133.19H61.117a2.565,2.565,0,0,0,0,5.129h7.166a2.565,2.565,0,1,0,0-5.129Z" fill="none" stroke="#212529" stroke-linecap="round" stroke-linejoin="round" stroke-width="1.886"/><path d="M80.6,128.061H73.412a2.565,2.565,0,1,0,0,5.129H80.6a2.565,2.565,0,0,0,0-5.129Z" fill="none" stroke="#212529" stroke-linecap="round" stroke-linejoin="round" stroke-width="1.886"/><path d="M80.6,133.19H73.412a2.565,2.565,0,1,0,0,5.129H80.6a2.565,2.565,0,1,0,0-5.129Z" fill="none" stroke="#212529" stroke-linecap="round" stroke-linejoin="round" stroke-width="1.886"/><path d="M117.519,126.005h-7.185a2.565,2.565,0,0,0,0,5.129h7.185a2.565,2.565,0,1,0,0-5.129Z" fill="none" stroke="#212529" stroke-linecap="round" stroke-linejoin="round" stroke-width="1.886"/><path d="M117.519,131.134h-7.185a2.565,2.565,0,0,0,0,5.129h7.185a2.565,2.565,0,1,0,0-5.129Z" fill="none" stroke="#212529" stroke-linecap="round" stroke-linejoin="round" stroke-width="1.886"/><path d="M129.833,126.005h-7.26a2.565,2.565,0,1,0,0,5.129h7.185a2.565,2.565,0,1,0,0-5.129Z" fill="none" stroke="#212529" stroke-linecap="round" stroke-linejoin="round" stroke-width="1.886"/><path d="M135.981,120.876H128.8a2.565,2.565,0,0,0,0,5.129h7.185a2.565,2.565,0,1,0,0-5.129Z" fill="none" stroke="#212529" stroke-linecap="round" stroke-linejoin="round" stroke-width="1.886"/><path d="M130.493,115.747h-7.166a2.565,2.565,0,1,0,0,5.129h7.166a2.565,2.565,0,0,0,0-5.129Z" fill="none" stroke="#212529" stroke-linecap="round" stroke-linejoin="round" stroke-width="1.886"/><path d="M129.833,131.134h-7.26a2.565,2.565,0,1,0,0,5.129h7.185a2.565,2.565,0,1,0,0-5.129Z" fill="none" stroke="#212529" stroke-linecap="round" stroke-linejoin="round" stroke-width="1.886"/><path d="M156.516,96.927a4.941,4.941,0,0,1,3.771-3.677l7.411-1.716a.6.6,0,0,0,.471-.6.641.641,0,0,0-.471-.6l-7.411-1.7a4.978,4.978,0,0,1-3.771-3.771L154.8,77.466a.6.6,0,0,0-1.188,0L151.9,84.858a4.922,4.922,0,0,1-3.771,3.771l-7.392,1.7a.622.622,0,0,0-.471.6.585.585,0,0,0,.471.6l7.392,1.716a4.884,4.884,0,0,1,3.771,3.677l1.716,7.411a.61.61,0,0,0,1.188,0Z" fill="none" stroke="#212529" stroke-linecap="round" stroke-linejoin="round" stroke-width="1.886"/><path d="M31.548,118.67l5.789-1.886a.545.545,0,0,0,0-1.037l-4.752-1.584a2.131,2.131,0,0,1-1.377-1.377l-1.584-4.752a.545.545,0,0,0-1.037,0L27,112.786a2.225,2.225,0,0,1-1.377,1.377l-4.771,1.584a.545.545,0,0,0,0,1.037l4.771,1.584A2.263,2.263,0,0,1,27,119.744l1.584,4.714a.545.545,0,0,0,1.037,0Z" fill="none" stroke="#212529" stroke-linecap="round" stroke-linejoin="round" stroke-width="1.886"/><path d="M120.782,117.991l.264-.811h0" fill="none" stroke="#212529" stroke-linecap="round" stroke-linejoin="round" stroke-width="1.886"/><path d="M120.423,93.684a42.222,42.222,0,0,1,1.886,16.972" fill="none" stroke="#212529" stroke-linecap="round" stroke-linejoin="round" stroke-width="1.886"/><path d="M122.139,74.732,119.1,90.516" fill="none" stroke="#212529" stroke-linecap="round" stroke-linejoin="round" stroke-width="1.886"/></g></g></svg>